<svg width="32" height="32" viewBox="0 0 32 32" fill="none" xmlns="http://www.w3.org/2000/svg">
  <!-- Background circle -->
  <circle cx="16" cy="16" r="16" fill="#fbbf24"/>
  
  <!-- Banana shape -->
  <path d="M8 12C8 10 10 8 12 8C14 8 16 10 16 12C16 14 14 16 12 16C10 16 8 14 8 12Z" fill="#f59e0b"/>
  <path d="M12 16C12 14 14 12 16 12C18 12 20 14 20 16C20 18 18 20 16 20C14 20 12 18 12 16Z" fill="#f59e0b"/>
  <path d="M16 20C16 18 18 16 20 16C22 16 24 18 24 20C24 22 22 24 20 24C18 24 16 22 16 20Z" fill="#f59e0b"/>
  
  <!-- Banana highlights -->
  <path d="M10 10C10 9 11 8 12 8C13 8 14 9 14 10C14 11 13 12 12 12C11 12 10 11 10 10Z" fill="#fef3c7"/>
  <path d="M14 14C14 13 15 12 16 12C17 12 18 13 18 14C18 15 17 16 16 16C15 16 14 15 14 14Z" fill="#fef3c7"/>
  <path d="M18 18C18 17 19 16 20 16C21 16 22 17 22 18C22 19 21 20 20 20C19 20 18 19 18 18Z" fill="#fef3c7"/>
</svg> 